<?xml version="1.0" encoding="UTF-8"?>
<svg width="600" height="100" version="1.1" xmlns="http://www.w3.org/2000/svg">
 <path d="m569.46 14.14-24.883 33.799 28.253 37.926h17.172l-28.364-38.143 24.669-33.581zm-42.709 71.724h14.67v-71.724h-14.67zm-72.256-73.028v14.888l56.182 59.446h4.8932v-14.998l-56.293-59.336zm46.403 1.3019v35.973l14.672 15.107v-51.08zm-46.403 71.726h14.67v-36.189l-14.67-14.994zm-25.865 4e-3h14.67v-71.724h-14.67zm-56.859-17.819h14.672v-53.905h-14.672zm0 17.821h46.077v-13.259h-46.077z" fill="#f0431e"/>
 <path d="m360.46 50.11c0 12.39-6.0871 22.714-15.105 28.797v-28.144c0-14.562-9.8886-24.343-23.149-24.343-7.6066 0-14.235 3.1524-18.364 7.1732v-15.76c5.107-3.1505 11.518-4.9973 18.364-4.9973 21.083 0 38.254 16.084 38.254 37.274m-61.184-0.86853c0 14.562 9.8904 24.343 23.147 24.343 7.6084 0 14.237-3.1524 18.364-7.1751v15.76c-5.1033 3.1524-11.518 4.9973-18.364 4.9973-21.081 0-38.251-16.082-38.251-37.274 0-12.388 6.0853-22.71 15.103-28.797zm-48.877 15.974 14.562-3.0426 17.17 23.692h-16.517zm-28.797-51.076h26.948c15.105 0 25.864 9.1298 25.864 23.147 0 13.802-10.759 23.255-25.864 23.255h-7.7163v-12.931h7.7163c6.8478 0 10.867-4.2385 10.867-10.324 0-5.9774-4.019-10.214-10.867-10.214h-12.278v58.792h-14.67zm-71.485 13.264h60.637v-13.26h-60.637zm22.929 58.465h14.67v-53.901h-14.67zm-81.976-71.731v71.725h49.554v-13.259h-34.882v-45.208h33.579v-13.259zm19.236 40.209h20.21v-12.39h-20.21zm-34.881-41.511-30.318 39.011-30.318-39.011h-4.7815v16.952l32.71 40.426h4.7815l32.708-40.426v-16.952zm-9.8886 42.054v30.971h14.67v-48.684zm-55.53 30.971h14.67v-30.971l-14.67-17.713z" fill="#15254a"/>
</svg>
